<?xml version="1.0" standalone="no"?>
<!DOCTYPE svg PUBLIC "-//W3C//DTD SVG 20010904//EN"
 "http://www.w3.org/TR/2001/REC-SVG-20010904/DTD/svg10.dtd">
<svg version="1.0" xmlns="http://www.w3.org/2000/svg"
 width="120" height="28pt" viewBox="0 0 3840.000000 2160.000000"
 preserveAspectRatio="xMidYMid meet">

<g transform="translate(1.000000,2160.000000) scale(0.100000,-0.100000)"
fill="#C5DDFC" stroke="none">
<path d="M3760 14334 c0 -7 -41 -11 -117 -12 -133 -3 -274 -16 -413 -39 -52
-8 -105 -16 -117 -16 -13 -1 -23 -3 -23 -6 0 -4 -13 -7 -28 -8 -99 -7 -367
-123 -527 -228 -90 -60 -232 -200 -292 -290 -43 -64 -124 -203 -128 -220 -1
-5 -5 -18 -8 -27 -8 -20 -16 -45 -18 -56 -1 -4 -10 -31 -20 -61 -28 -80 -66
-272 -78 -390 -6 -57 -11 -317 -11 -582 l0 -479 -465 0 c-458 0 -465 0 -465
-20 0 -11 -6 -20 -12 -20 -9 0 -10 -2 -2 -8 16 -10 16 -214 1 -224 -9 -6 -9
-8 1 -8 6 0 12 -7 12 -15 0 -8 -6 -15 -12 -15 -10 0 -10 -2 -1 -8 15 -10 15
-174 0 -184 -9 -6 -9 -8 1 -8 6 0 12 -7 12 -15 0 -8 -6 -15 -12 -15 -10 0 -10
-2 -1 -8 15 -10 15 -174 0 -184 -9 -6 -9 -8 1 -8 6 0 12 -7 12 -15 0 -8 -6
-15 -12 -15 -9 0 -10 -2 -2 -8 17 -11 18 -173 2 -183 -10 -7 -10 -9 0 -9 6 0
12 -7 12 -15 0 -8 -6 -15 -12 -15 -10 0 -10 -2 0 -9 8 -4 13 -14 12 -22 -1 -8
-2 -29 -1 -46 l1 -33 465 0 465 0 0 -1715 0 -1715 683 0 682 0 0 1713 0 1712
518 3 c498 2 517 3 517 21 0 20 61 680 85 926 8 83 15 153 15 158 0 4 -254 7
-564 7 -442 0 -565 3 -568 13 -2 6 -4 208 -3 447 1 373 4 444 18 499 36 134
110 226 231 284 121 59 197 69 574 75 l332 4 0 514 c0 404 -3 514 -12 515 -51
2 -138 10 -260 24 -79 9 -213 19 -298 22 -95 4 -158 10 -162 17 -5 8 -8 8 -8
0z"/>
<path d="M19435 14293 c-127 -12 -264 -22 -375 -27 -62 -4 -94 -6 -485 -41
-154 -14 -299 -27 -322 -31 l-43 -5 0 -3405 0 -3404 640 0 640 0 0 323 c0 178
3 326 6 330 4 3 27 -29 53 -71 110 -183 250 -329 416 -431 39 -24 81 -52 95
-61 60 -41 275 -120 360 -133 225 -35 269 -39 435 -38 106 0 229 7 300 16 66
9 134 18 151 20 44 5 199 50 273 79 80 32 236 115 326 174 98 64 308 277 378
383 108 163 246 450 263 545 3 16 18 74 34 129 110 381 152 933 109 1415 -19
212 -50 384 -106 585 -14 50 -26 95 -27 100 -1 6 -5 16 -9 23 -5 6 -6 12 -3
12 11 0 -49 149 -104 260 -123 245 -193 345 -354 505 -272 271 -635 423 -1089
456 -243 18 -406 -2 -677 -83 -318 -94 -579 -293 -696 -531 -21 -42 -42 -77
-46 -77 -4 0 -9 674 -10 1498 l-3 1497 -130 -12z m1255 -3382 c19 -5 51 -13
70 -16 77 -13 255 -121 293 -177 8 -13 27 -36 41 -53 85 -95 194 -350 210
-490 3 -22 7 -65 11 -95 3 -30 10 -93 15 -140 5 -47 10 -191 10 -320 0 -206
-4 -281 -26 -455 -3 -22 -7 -56 -9 -76 -23 -186 -166 -454 -298 -559 -166
-133 -348 -187 -592 -177 -189 8 -354 60 -466 145 -33 26 -68 52 -77 57 -38
23 -157 162 -157 184 0 3 -10 22 -22 41 -29 47 -59 125 -91 235 -25 90 -26 92
-30 535 -2 279 0 479 7 536 16 133 55 276 101 367 22 44 40 86 40 94 0 7 5 13
10 13 6 0 10 7 10 15 0 8 5 15 10 15 6 0 10 4 10 9 0 16 126 140 190 186 98
71 154 96 275 121 96 21 130 23 270 20 88 -2 176 -9 195 -15z"/>
<path d="M34320 14289 c-75 -8 -217 -18 -320 -23 -92 -5 -737 -61 -817 -72
l-43 -5 0 -3405 0 -3404 685 0 685 0 0 1100 c0 605 4 1100 8 1100 4 0 23 -26
42 -57 19 -32 80 -130 135 -218 56 -88 118 -188 139 -223 21 -34 43 -68 50
-75 6 -6 83 -127 171 -267 87 -140 162 -256 167 -258 4 -2 8 -10 8 -18 0 -8 5
-14 10 -14 6 0 10 -6 10 -14 0 -8 5 -16 11 -18 5 -2 11 -10 12 -18 3 -17 62
-117 81 -136 7 -6 45 -65 86 -130 130 -212 224 -359 241 -377 9 -10 25 -35 35
-57 10 -22 22 -40 27 -40 4 0 7 -5 7 -12 0 -6 34 -63 76 -126 41 -62 78 -120
81 -128 4 -12 113 -14 736 -14 l730 0 -21 23 c-12 13 -22 27 -22 31 0 4 -9 16
-20 28 -11 12 -26 34 -32 50 -7 15 -16 28 -20 28 -5 0 -8 7 -8 15 0 8 -19 41
-42 73 -24 32 -74 109 -113 171 -38 62 -121 190 -183 284 -63 94 -117 178
-120 186 -3 9 -8 18 -11 21 -7 6 -215 330 -241 375 -9 17 -68 107 -131 202
-63 94 -152 233 -199 307 -47 75 -88 136 -92 136 -5 0 -8 7 -8 15 0 8 -4 15
-10 15 -5 0 -10 6 -10 14 0 8 -7 22 -16 30 -8 9 -13 16 -10 16 3 0 -15 30 -40
68 -145 216 -137 202 -121 220 16 19 157 240 157 247 0 6 68 112 155 245 35
52 123 192 195 310 216 351 244 394 256 407 6 6 32 47 59 90 110 181 228 368
234 373 12 9 55 84 58 100 1 8 7 16 12 18 6 2 11 10 11 18 0 8 5 14 10 14 6 0
10 4 10 9 0 5 26 49 58 98 68 102 182 288 182 297 0 9 -1423 7 -1436 -2 -7 -4
-55 -78 -108 -166 -53 -87 -128 -208 -166 -268 -39 -60 -70 -114 -70 -119 0
-5 -4 -9 -10 -9 -5 0 -10 -6 -10 -12 0 -7 -17 -38 -38 -69 -93 -140 -113 -172
-187 -294 -43 -71 -113 -183 -157 -249 -43 -65 -78 -125 -78 -132 0 -8 -4 -14
-10 -14 -5 0 -10 -6 -10 -14 0 -8 -6 -21 -13 -28 -15 -14 -179 -273 -189 -298
-4 -8 -41 -67 -82 -130 -41 -63 -106 -166 -143 -227 -37 -62 -71 -113 -75
-113 -5 0 -8 1019 -8 2265 l0 2265 -57 -1 c-32 -1 -92 -5 -133 -10z"/>
<path d="M6230 12000 c-123 -12 -284 -43 -390 -76 -47 -14 -94 -27 -105 -29
-41 -9 -232 -108 -326 -170 -102 -66 -256 -196 -267 -224 -3 -9 -14 -22 -24
-29 -32 -23 -139 -172 -196 -271 -95 -169 -194 -393 -207 -474 -3 -18 -19 -81
-35 -142 -69 -264 -101 -545 -101 -900 1 -387 23 -609 93 -925 12 -52 22 -104
24 -115 1 -11 3 -21 4 -22 2 -2 4 -7 5 -13 1 -5 3 -11 5 -12 1 -2 3 -12 5 -23
10 -77 120 -328 220 -505 84 -150 266 -354 405 -456 183 -134 480 -263 643
-279 23 -2 72 -9 109 -15 170 -29 435 -31 618 -5 160 23 169 24 262 55 181 61
339 160 483 304 111 111 165 174 165 194 0 6 5 12 10 12 6 0 10 6 10 13 0 7 8
22 19 33 10 11 21 30 25 41 7 22 39 63 50 63 3 0 6 -146 6 -325 l0 -325 647 2
648 3 0 2265 0 2266 -647 0 -648 0 0 -338 c0 -186 -4 -338 -8 -338 -4 0 -18
21 -31 48 -65 134 -203 310 -314 399 -110 90 -308 216 -332 212 -3 0 -47 13
-98 30 -154 52 -273 71 -462 76 -93 2 -213 0 -265 -5z m781 -1086 c46 -9 90
-17 97 -17 6 0 12 -3 12 -7 0 -3 8 -6 18 -6 45 0 178 -90 270 -182 50 -51 92
-99 92 -107 0 -8 5 -15 10 -15 6 0 10 -7 10 -15 0 -8 5 -15 11 -15 5 0 7 -4 4
-10 -3 -5 -2 -10 3 -10 5 0 9 -6 9 -12 1 -7 17 -51 36 -98 74 -177 80 -228 84
-751 5 -507 1 -561 -52 -722 -57 -175 -140 -305 -250 -394 -33 -26 -67 -56
-77 -65 -26 -26 -155 -85 -243 -110 -68 -19 -103 -23 -235 -22 -184 0 -253 14
-385 79 -152 74 -248 170 -340 337 -59 108 -139 377 -120 407 3 5 1 12 -5 16
-12 7 -11 -19 -12 400 -1 387 1 453 12 460 5 3 6 13 3 23 -2 10 8 72 22 138
55 243 166 446 308 559 70 56 170 110 222 119 17 3 59 12 95 20 91 20 298 20
401 0z"/>
<path d="M11655 11999 c-206 -11 -413 -42 -610 -90 -44 -11 -91 -22 -105 -24
-109 -18 -449 -183 -604 -294 -151 -108 -318 -282 -413 -430 -99 -154 -221
-410 -226 -473 -1 -10 -5 -18 -10 -18 -4 0 -6 -4 -2 -9 3 -5 1 -12 -5 -16 -6
-4 -8 -10 -6 -13 2 -4 -6 -49 -20 -100 -74 -288 -105 -689 -85 -1097 13 -251
32 -403 72 -585 17 -74 32 -144 34 -155 2 -11 4 -21 5 -22 2 -2 4 -7 5 -13 1
-5 3 -11 5 -12 1 -2 4 -15 6 -30 10 -58 149 -365 180 -395 8 -8 14 -21 14 -29
0 -8 5 -14 12 -14 6 0 9 -3 5 -6 -12 -13 50 -93 231 -299 35 -40 157 -139 266
-216 197 -139 626 -295 891 -324 17 -2 50 -6 75 -9 341 -40 714 -40 1030 1 25
3 61 7 80 9 105 9 280 53 411 102 113 43 262 113 295 140 l21 17 -63 180 c-35
99 -65 194 -68 210 -2 17 -5 31 -6 33 -2 1 -4 7 -5 12 -1 6 -3 11 -5 13 -1 1
-3 9 -5 17 -7 29 -163 481 -168 486 -3 3 -52 -15 -109 -39 -186 -81 -425 -146
-608 -165 -89 -9 -271 -8 -355 2 -115 13 -331 81 -380 118 -5 4 -44 30 -86 58
-42 27 -100 73 -129 102 -72 73 -167 209 -201 288 -34 80 -81 238 -77 260 1 8
-2 22 -7 30 -10 16 -14 829 -4 836 3 2 4 15 2 29 -3 13 -2 33 2 42 4 10 9 34
11 53 10 97 76 255 157 375 117 172 330 318 532 361 192 42 457 50 640 21 55
-9 116 -19 135 -23 47 -7 144 -31 205 -51 54 -17 68 -22 189 -77 43 -20 82
-36 86 -36 7 0 167 465 175 509 2 9 4 16 5 16 1 0 4 11 6 24 2 14 34 114 70
223 37 110 65 200 63 202 -22 18 -134 83 -169 98 -91 40 -232 88 -241 83 -5
-4 -9 -2 -9 3 0 5 -6 9 -12 9 -7 0 -53 9 -103 21 -301 71 -666 99 -1020 81z"/>
<path d="M25151 11999 c-197 -15 -489 -72 -671 -131 -151 -48 -418 -191 -548
-292 -77 -60 -282 -262 -282 -278 0 -7 -9 -19 -20 -26 -11 -7 -20 -16 -20 -22
0 -5 -10 -20 -22 -33 -59 -63 -166 -269 -248 -477 -55 -138 -120 -393 -135
-525 -28 -268 -37 -526 -24 -741 7 -115 14 -229 15 -254 2 -25 3 -45 4 -45 1
0 3 -25 6 -55 10 -147 108 -502 181 -659 19 -40 36 -82 38 -93 7 -34 115 -208
201 -324 96 -128 231 -260 365 -357 225 -161 649 -330 889 -353 14 -1 25 -3
25 -4 0 0 16 -3 35 -4 19 -2 89 -9 155 -16 214 -23 563 -17 795 15 19 3 60 7
90 10 213 22 623 180 812 313 128 90 244 191 323 283 44 51 87 99 96 108 9 9
36 48 60 86 24 39 50 79 57 90 16 27 123 239 144 291 17 38 54 141 57 157 0 4
1 8 2 10 0 1 2 9 4 17 2 8 19 80 39 160 113 466 121 1049 20 1520 -13 63 -31
135 -39 159 -8 24 -12 47 -10 52 3 4 0 11 -6 14 -5 4 -8 13 -5 20 2 7 2 16 -2
20 -4 4 -7 10 -7 13 -1 32 -110 274 -174 384 -173 299 -363 495 -649 667 -133
80 -354 179 -439 196 -10 1 -54 12 -98 23 -320 81 -662 108 -1014 81z m467
-1089 c23 -5 59 -12 80 -15 20 -3 84 -29 142 -57 91 -44 116 -63 190 -137 47
-48 103 -118 126 -157 47 -80 118 -250 109 -263 -3 -5 -1 -11 4 -13 5 -1 11
-25 14 -53 3 -27 11 -93 17 -146 14 -117 5 -954 -10 -954 -1 0 -4 -16 -7 -35
-9 -68 -45 -172 -89 -259 -142 -278 -391 -445 -699 -470 -136 -11 -228 -3
-348 30 -69 20 -201 82 -222 104 -5 7 -30 27 -55 46 -65 49 -150 139 -150 159
0 6 -4 10 -10 10 -5 0 -12 11 -16 25 -3 14 -10 25 -15 25 -5 0 -8 3 -7 8 1 4
-12 36 -29 72 -44 90 -82 225 -98 350 -18 127 -21 781 -5 908 16 129 56 269
104 367 24 49 46 95 47 100 11 35 166 192 234 236 33 21 66 44 74 50 22 19
150 59 236 74 88 16 309 13 383 -5z"/>
<path d="M30113 12000 c-243 -20 -590 -93 -742 -156 -122 -51 -302 -144 -394
-205 -87 -57 -347 -293 -347 -315 0 -8 -4 -14 -8 -14 -4 0 -15 -12 -24 -28 -9
-15 -29 -41 -44 -57 -98 -106 -241 -409 -318 -673 -42 -144 -50 -180 -60 -287
-3 -22 -12 -96 -22 -165 -23 -162 -26 -636 -5 -820 8 -69 15 -141 16 -160 2
-19 5 -42 9 -50 3 -8 8 -40 11 -70 11 -107 86 -376 138 -490 122 -271 169
-354 282 -495 121 -151 264 -281 419 -380 210 -133 590 -276 801 -300 28 -3
68 -8 90 -10 22 -3 87 -10 145 -17 135 -15 527 -15 650 1 91 11 125 15 235 27
104 11 316 73 465 136 203 86 366 181 460 268 25 22 56 47 71 55 25 14 139
130 139 143 0 4 23 32 51 62 61 65 108 134 172 249 83 148 191 407 202 484 2
12 17 81 34 152 57 248 81 469 81 770 0 288 -22 506 -76 743 -15 64 -28 126
-30 137 -1 11 -3 21 -4 23 -2 1 -4 7 -5 12 -1 6 -4 13 -5 18 -1 4 -2 10 -1 14
1 8 -25 84 -39 113 -5 11 -21 49 -36 85 -34 84 -143 293 -158 302 -6 4 -7 8
-2 8 21 0 -115 172 -233 293 -47 49 -120 116 -161 150 -41 34 -77 64 -80 67
-13 15 -70 50 -70 43 0 -4 -4 -3 -8 2 -28 39 -449 234 -472 220 -6 -3 -10 -1
-10 6 0 7 -3 10 -6 6 -3 -3 -27 1 -52 9 -81 24 -273 63 -392 79 -135 19 -520
27 -667 15z m422 -1084 c128 -21 143 -25 208 -51 188 -76 329 -218 427 -429
37 -82 93 -277 90 -313 -1 -10 -1 -20 0 -23 6 -13 15 -754 9 -782 -1 -5 -3
-30 -4 -58 -1 -27 -4 -53 -5 -57 -1 -5 -2 -16 -1 -25 3 -25 -44 -215 -67 -274
-34 -86 -120 -221 -184 -290 -176 -188 -409 -278 -691 -267 -154 6 -315 56
-421 131 -59 42 -196 168 -196 181 0 3 -10 18 -22 31 -13 14 -24 31 -26 38 -1
7 -13 30 -26 50 -52 83 -104 250 -126 407 -8 54 -10 222 -8 515 l4 435 31 115
c51 192 159 384 270 476 90 76 209 148 263 160 78 17 159 33 190 38 62 9 203
5 285 -8z"/>
<path d="M15250 11989 c-115 -12 -308 -46 -400 -69 -41 -10 -86 -21 -100 -23
-69 -13 -347 -123 -380 -151 -8 -7 -46 -30 -85 -51 -189 -102 -392 -288 -522
-478 -23 -34 -46 -67 -50 -73 -59 -79 -215 -430 -227 -507 -1 -9 -5 -19 -8
-23 -4 -3 -4 -12 -2 -19 3 -7 0 -16 -5 -20 -6 -3 -9 -10 -7 -14 3 -4 -2 -36
-10 -72 -55 -235 -79 -554 -70 -939 6 -297 22 -470 63 -675 14 -71 27 -139 29
-150 1 -11 3 -20 4 -20 1 0 3 -9 4 -20 9 -75 170 -463 206 -495 3 -3 15 -25
28 -50 23 -47 107 -154 198 -254 30 -32 54 -62 54 -67 0 -5 5 -9 10 -9 6 0 50
-33 98 -73 48 -40 104 -85 124 -100 45 -33 223 -122 333 -167 44 -18 94 -38
110 -45 44 -20 296 -85 347 -90 24 -3 90 -11 148 -20 328 -47 835 -49 1220 -5
47 6 108 13 135 15 108 12 133 16 215 31 149 27 381 90 520 142 216 80 241 90
265 106 l24 16 -21 72 c-11 40 -51 181 -89 312 -37 132 -66 243 -64 247 3 4 1
9 -4 11 -5 1 -11 19 -14 38 -5 35 -56 232 -62 238 -2 2 -82 -23 -177 -57 -95
-33 -240 -78 -323 -100 -141 -37 -175 -44 -267 -56 -20 -2 -77 -11 -125 -19
-156 -27 -304 -38 -503 -38 -211 0 -347 12 -480 44 -47 11 -96 22 -109 24 -80
16 -213 95 -288 172 -84 87 -135 176 -188 332 -34 98 -72 286 -61 297 3 3 1
12 -5 20 -6 7 -10 14 -8 14 2 1 651 3 1441 3 791 1 1441 5 1444 9 9 9 8 879
-1 997 -3 47 -15 143 -26 214 -10 70 -17 132 -14 136 3 5 1 11 -5 15 -6 4 -8
10 -6 14 19 30 -92 349 -180 520 -171 330 -357 516 -699 697 -94 50 -238 109
-288 118 -12 2 -80 18 -152 34 -232 55 -316 64 -625 67 -157 2 -323 -1 -370
-6z m607 -937 c197 -54 362 -183 447 -350 57 -111 103 -320 112 -504 l7 -138
-843 0 -843 0 7 101 c12 190 63 379 139 519 116 213 316 351 562 390 96 14
328 4 412 -18z"/>
</g>
</svg>
